<svg width="20" height="14" viewBox="0 0 20 14" fill="none" xmlns="http://www.w3.org/2000/svg">
<path d="M1.46669 13.4H18.5334C19.12 13.4 19.6 12.92 19.6 12.3333C19.6 11.7467 19.12 11.2667 18.5334 11.2667H1.46669C0.880024 11.2667 0.400024 11.7467 0.400024 12.3333C0.400024 12.92 0.880024 13.4 1.46669 13.4ZM1.46669 8.06667H18.5334C19.12 8.06667 19.6 7.58667 19.6 7.00001C19.6 6.41334 19.12 5.93334 18.5334 5.93334H1.46669C0.880024 5.93334 0.400024 6.41334 0.400024 7.00001C0.400024 7.58667 0.880024 8.06667 1.46669 8.06667ZM0.400024 1.66667C0.400024 2.25334 0.880024 2.73334 1.46669 2.73334H18.5334C19.12 2.73334 19.6 2.25334 19.6 1.66667C19.6 1.08001 19.12 0.600006 18.5334 0.600006H1.46669C0.880024 0.600006 0.400024 1.08001 0.400024 1.66667Z" fill="white"/>
</svg>
