<svg width="20" height="19" viewBox="0 0 20 19" fill="none" xmlns="http://www.w3.org/2000/svg">
<path d="M10.1 15.55L10 15.65L9.89 15.55C5.14 11.24 2 8.39 2 5.5C2 3.5 3.5 2 5.5 2C7.04 2 8.54 3 9.07 4.36H10.93C11.46 3 12.96 2 14.5 2C16.5 2 18 3.5 18 5.5C18 8.39 14.86 11.24 10.1 15.55ZM14.5 0C12.76 0 11.09 0.81 10 2.08C8.91 0.81 7.24 0 5.5 0C2.42 0 0 2.41 0 5.5C0 9.27 3.4 12.36 8.55 17.03L10 18.35L11.45 17.03C16.6 12.36 20 9.27 20 5.5C20 2.41 17.58 0 14.5 0Z" fill="#6771E0"/>
<path d="M10.4587 6.9431C10.4182 6.76402 10.1869 6.66862 10.05 6.57528C9.98468 6.53075 9.9044 6.48141 9.85285 6.41902C9.8077 6.36436 9.79115 6.23862 9.75549 6.17741C9.57168 5.86191 9.30183 5.64463 9.01985 5.42374C8.89224 5.32378 8.80005 5.19597 8.6941 5.07515C8.44211 4.7878 8.13747 4.53471 7.9248 4.21569C7.71669 3.90354 7.32078 3.6507 6.96317 3.53895C6.78912 3.48456 6.60477 3.51572 6.42706 3.48366C6.13251 3.43052 5.86993 3.30087 5.58925 3.20599C5.44722 3.15798 5.2909 3.12155 5.14209 3.10502C4.81258 3.0684 4.55 3.20908 4.26821 3.36345C3.98136 3.5206 3.7249 3.71606 3.53738 3.98851C3.33074 4.28875 3.19901 4.6434 3.02531 4.96336C2.84145 5.30205 2.77144 5.56614 2.87386 5.95624C2.98752 6.38916 3.19545 6.78966 3.39314 7.18832C3.6264 7.65873 3.85693 8.12929 4.0807 8.60431C4.3406 9.15603 4.57844 9.72062 4.86683 10.2583C5.17495 10.8328 5.51095 11.4341 6.03761 11.8378C6.50071 12.1927 7.02596 12.4648 7.50048 12.8042C8.16245 13.2777 8.70796 13.8882 9.34319 14.3957C9.48561 14.5095 9.5965 14.6124 9.7014 14.7611C9.78888 14.8852 9.8678 14.7988 9.97907 14.7275C10.631 14.3094 11.2408 13.825 11.8302 13.3247C12.2092 13.003 12.5763 12.6911 12.9998 12.4292C13.3752 12.1969 13.7595 11.9827 14.1105 11.7128C14.7596 11.2136 15.0982 10.4551 15.6322 9.85563C15.9647 9.48234 16.1891 9.10426 16.3667 8.63316C16.5169 8.23464 16.6103 7.81822 16.7645 7.42151C16.8815 7.12084 17.009 6.82561 17.0626 6.50557C17.1211 6.15676 17.1597 5.79983 17.2045 5.44898C17.2508 5.08631 17.1742 4.86154 16.9605 4.56669C16.705 4.21429 16.4014 3.94774 16.0457 3.70243C15.8319 3.55494 15.6016 3.36698 15.3437 3.30576C15.0566 3.23759 14.7335 3.28312 14.4458 3.30215C13.8558 3.34117 13.246 3.35953 12.6812 3.55217C12.4411 3.63408 12.2184 3.75972 11.9901 3.86831C11.7841 3.96626 11.5688 4.05205 11.371 4.16641C10.8707 4.45569 10.6475 5.05933 10.3577 5.52952C10.1951 5.79333 10.0384 5.73592 9.76631 5.65212C9.46198 5.55841 9.16213 5.45141 8.85517 5.36604C8.30002 5.21165 7.74359 5.12882 7.16872 5.09919C6.77682 5.07899 6.34069 5.03179 5.94866 5.08116C5.79014 5.10112 5.65121 5.157 5.5039 5.21458C5.355 5.27279 5.13976 5.31056 5.03992 5.45018C4.92992 5.60401 4.95355 5.82147 4.98222 5.9935C5.04178 6.35085 5.17889 6.69188 5.33321 7.01763C5.83394 8.07456 6.50683 9.04256 7.03169 10.0876C7.40046 10.8219 7.64773 11.6387 8.1039 12.3258C8.18751 12.4518 8.28017 12.5881 8.40801 12.6744C8.65891 12.8437 9.00704 12.872 9.29992 12.8475C10.0206 12.7872 10.7969 12.3606 11.2256 11.7753C11.3908 11.5497 11.4313 11.3125 11.3866 11.0384C11.2539 10.2239 10.7819 9.45453 10.1257 8.95651C9.64697 8.59317 9.03495 8.36538 8.44407 8.27015C8.19295 8.22968 7.67879 8.15686 7.68199 8.56104C7.68588 9.0533 8.08706 9.60784 8.36234 9.97703C8.73996 10.4835 9.24976 11.0264 9.80477 11.3474C10.0331 11.4794 10.1126 11.3537 10.0656 11.1154C9.94791 10.5176 9.54454 9.97277 9.19655 9.49382C8.71948 8.8372 8.18317 8.22685 7.71805 7.56095C7.50458 7.25533 7.49142 7.21866 7.3382 6.95633C7.25587 6.81536 7.27283 6.87191 7.48605 7.05369C8.26792 7.72028 9.07424 8.42981 9.95863 8.95771C10.165 9.08089 10.3831 9.2079 10.621 9.24259C10.9921 9.29674 11.1011 8.8973 11.2268 8.67643C11.5117 8.17553 11.8116 7.67654 12.0574 7.15466C12.177 6.90079 12.4735 6.12674 12.3026 6.3493C12.0363 6.69612 11.8357 7.11604 11.5982 7.48162C11.4944 7.64134 11.39 7.80084 11.2785 7.95522C10.9784 8.37044 11.2597 7.89058 11.2977 7.8302C11.6832 7.2173 12.0952 6.59392 12.5743 6.04879C12.7195 5.8835 12.7534 5.8742 12.686 6.06322C12.625 6.23443 12.4491 6.59613 12.3819 6.73515C12.3196 6.86424 12.2543 6.99188 12.192 7.12101C12.1513 7.20545 12.1056 7.28795 12.073 7.37584C12.0635 7.40145 12.0405 7.4642 12.067 7.45757C12.1346 7.44066 12.1817 7.37811 12.2365 7.33497C12.5083 7.12091 12.7702 6.89441 13.0406 6.67866C13.4992 6.31291 13.9643 5.95153 14.4422 5.61125C14.5105 5.56266 14.5785 5.5132 14.6514 5.47182C14.6794 5.45592 14.72 5.41781 14.7427 5.44056C14.7716 5.46946 14.747 5.52253 14.7427 5.56317C14.7326 5.65829 14.7159 5.75262 14.6994 5.84685C14.6054 6.38648 14.509 6.93448 14.3521 7.45998C14.2533 7.7908 14.1168 8.21165 13.8556 8.46247C13.8325 8.48469 13.7931 8.51239 13.7655 8.49613C13.6584 8.43315 13.7408 8.24613 13.7607 8.1235C13.8072 7.83587 13.8649 7.62432 13.9542 7.34458C13.966 7.30768 14.0869 6.9231 14.1609 6.83853C14.1719 6.82602 14.2066 6.8353 14.209 6.85175C14.2324 7.01152 14.1411 7.47674 14.1201 7.56095C13.9488 8.2467 13.6736 8.88738 13.2582 9.46136C12.8697 9.9982 12.292 10.378 11.9925 10.9771C11.9668 11.0284 11.9759 10.9917 11.9624 10.9483C11.9108 10.7819 11.7906 10.6285 11.6775 10.5011C10.6593 9.35387 9.2988 8.56878 8.01976 7.75568C7.64324 7.51632 7.406 7.16609 7.06053 6.89382C6.92307 6.78548 6.66248 6.54446 6.47755 6.57528" stroke="#6771E0" stroke-width="3" stroke-linecap="round"/>
</svg>
