<svg width="24" height="30" viewBox="0 0 24 30" fill="none" xmlns="http://www.w3.org/2000/svg">
<path fill-rule="evenodd" clip-rule="evenodd" d="M4.93083 4.6125C5.8567 3.67961 6.95795 2.93906 8.17117 2.43349C9.3844 1.92792 10.6856 1.66731 12 1.66667C14.65 1.66667 17.1933 2.725 19.0692 4.6125C20.9475 6.50533 22.0011 9.06419 22 11.7308C22 16.3358 19.4467 20.5042 16.7867 23.5817C15.6657 24.8723 14.4505 26.0778 13.1508 27.1883C12.775 27.5106 12.3913 27.8234 12 28.1267C11.6089 27.8232 11.2252 27.5103 10.8492 27.1883C9.54954 26.0778 8.33425 24.8723 7.21333 23.5817C4.55333 20.5042 2 16.3358 2 11.7308C2 9.06 3.055 6.5 4.93083 4.6125ZM11.52 29.8475L12 29.1667L12.48 29.8475C12.3395 29.9465 12.1719 29.9996 12 29.9996C11.8281 29.9996 11.6605 29.9465 11.52 29.8475ZM11.52 29.8475L12 29.1667L12.48 29.8475L12.4833 29.8458L12.4917 29.84L12.5167 29.8208L12.615 29.75C12.6994 29.6883 12.8189 29.5983 12.9733 29.48C13.28 29.245 13.715 28.8992 14.2342 28.455C15.597 27.2901 16.8714 26.0255 18.0467 24.6717C20.8033 21.4833 23.6667 16.9333 23.6667 11.73C23.6667 8.62167 22.4383 5.63833 20.2517 3.43833C19.1709 2.34942 17.8854 1.48503 16.4693 0.894935C15.0531 0.304839 13.5342 0.000690497 12 0C10.4659 0.000581344 8.94699 0.304599 7.53082 0.89455C6.11465 1.4845 4.82915 2.34874 3.74833 3.4375C1.55975 5.64268 0.332131 8.62395 0.333329 11.7308C0.333329 16.9333 3.19666 21.4833 5.95333 24.6717C7.12863 26.0255 8.40298 27.2901 9.76583 28.455C10.2858 28.8992 10.72 29.245 11.0267 29.48C11.1771 29.5959 11.3291 29.7098 11.4825 29.8217L11.5092 29.84L11.5167 29.8458L11.52 29.8475ZM8.66666 11.6667C8.66666 10.7826 9.01785 9.93477 9.64297 9.30964C10.2681 8.68452 11.1159 8.33333 12 8.33333C12.8841 8.33333 13.7319 8.68452 14.357 9.30964C14.9821 9.93477 15.3333 10.7826 15.3333 11.6667C15.3333 12.5507 14.9821 13.3986 14.357 14.0237C13.7319 14.6488 12.8841 15 12 15C11.1159 15 10.2681 14.6488 9.64297 14.0237C9.01785 13.3986 8.66666 12.5507 8.66666 11.6667ZM12 6.66667C10.6739 6.66667 9.40214 7.19345 8.46446 8.13113C7.52678 9.06881 7 10.3406 7 11.6667C7 12.9927 7.52678 14.2645 8.46446 15.2022C9.40214 16.1399 10.6739 16.6667 12 16.6667C13.3261 16.6667 14.5978 16.1399 15.5355 15.2022C16.4732 14.2645 17 12.9927 17 11.6667C17 10.3406 16.4732 9.06881 15.5355 8.13113C14.5978 7.19345 13.3261 6.66667 12 6.66667Z" fill="black"/>
</svg>
