<svg width="36" height="30" viewBox="0 0 36 30" fill="none" xmlns="http://www.w3.org/2000/svg">
<path d="M25.8125 0.5625C22.5312 0.5625 19.6781 2.04219 18 4.52187C16.3219 2.04219 13.4688 0.5625 10.1875 0.5625C7.70198 0.565395 5.3191 1.55404 3.56157 3.31157C1.80404 5.0691 0.815395 7.45198 0.8125 9.9375C0.8125 14.5 3.65625 19.2484 9.26562 24.0484C11.836 26.2387 14.6125 28.1748 17.5563 29.8297C17.6927 29.903 17.8451 29.9414 18 29.9414C18.1549 29.9414 18.3073 29.903 18.4437 29.8297C21.3875 28.1748 24.164 26.2387 26.7344 24.0484C32.3438 19.2484 35.1875 14.5 35.1875 9.9375C35.1846 7.45198 34.196 5.0691 32.4384 3.31157C30.6809 1.55404 28.298 0.565395 25.8125 0.5625ZM18 27.9234C15.4359 26.4437 2.6875 18.6437 2.6875 9.9375C2.68957 7.94901 3.48041 6.04256 4.88648 4.63648C6.29256 3.23041 8.19901 2.43957 10.1875 2.4375C13.3562 2.4375 16.0172 4.12969 17.1328 6.85469C17.2034 7.02663 17.3236 7.1737 17.478 7.2772C17.6324 7.38071 17.8141 7.43597 18 7.43597C18.1859 7.43597 18.3676 7.38071 18.522 7.2772C18.6764 7.1737 18.7966 7.02663 18.8672 6.85469C19.9828 4.12969 22.6437 2.4375 25.8125 2.4375C27.801 2.43957 29.7074 3.23041 31.1135 4.63648C32.5196 6.04256 33.3104 7.94901 33.3125 9.9375C33.3125 18.6437 20.5641 26.4437 18 27.9234Z" fill="black"/>
</svg>
