<svg width="34" height="34" viewBox="0 0 34 34" fill="none" xmlns="http://www.w3.org/2000/svg">
<path d="M23.6666 13.6667C23.6666 15.4348 22.9643 17.1305 21.714 18.3807C20.4638 19.631 18.7681 20.3333 17 20.3333C15.2319 20.3333 13.5362 19.631 12.2859 18.3807C11.0357 17.1305 10.3333 15.4348 10.3333 13.6667C10.3333 11.8986 11.0357 10.2029 12.2859 8.95264C13.5362 7.70239 15.2319 7.00002 17 7.00002C18.7681 7.00002 20.4638 7.70239 21.714 8.95264C22.9643 10.2029 23.6666 11.8986 23.6666 13.6667Z" fill="black"/>
<path fill-rule="evenodd" clip-rule="evenodd" d="M16.32 33.6533C7.43081 33.2967 0.333313 25.9767 0.333313 17C0.333313 7.79501 7.79498 0.333344 17 0.333344C26.205 0.333344 33.6666 7.79501 33.6666 17C33.6666 26.205 26.205 33.6667 17 33.6667H16.7716C16.6205 33.6667 16.47 33.6622 16.32 33.6533ZM6.30498 27.5167C6.18037 27.1588 6.13795 26.7775 6.18088 26.401C6.22381 26.0245 6.35098 25.6625 6.55296 25.3419C6.75494 25.0213 7.02653 24.7503 7.34758 24.549C7.66863 24.3477 8.03089 24.2213 8.40748 24.1792C14.9041 23.46 19.1358 23.525 25.6008 24.1942C25.9779 24.2334 26.3411 24.3582 26.6626 24.5591C26.9842 24.7599 27.2557 25.0315 27.4564 25.3531C27.6572 25.6747 27.7819 26.0379 27.8211 26.415C27.8602 26.7921 27.8128 27.1732 27.6825 27.5292C30.4534 24.7259 32.0051 20.9417 32 17C32 8.71584 25.2841 2.00001 17 2.00001C8.71581 2.00001 1.99998 8.71584 1.99998 17C1.99998 21.0967 3.64248 24.81 6.30498 27.5167Z" fill="black"/>
</svg>
