<svg width="28" height="34" viewBox="0 0 28 34" fill="none" xmlns="http://www.w3.org/2000/svg">
<path d="M5.66669 8.66666V5.33332C5.66671 4.36812 5.9461 3.42356 6.47113 2.61364C6.99616 1.80373 7.74439 1.16309 8.6255 0.76906C9.50661 0.375028 10.4829 0.244445 11.4366 0.393074C12.3903 0.541703 13.2806 0.96319 14 1.60666C14.7194 0.96319 15.6097 0.541703 16.5634 0.393074C17.5171 0.244445 18.4934 0.375028 19.3745 0.76906C20.2557 1.16309 21.0039 1.80373 21.5289 2.61364C22.0539 3.42356 22.3333 4.36812 22.3334 5.33332V8.66666H24.8334C25.4964 8.66666 26.1323 8.93005 26.6011 9.39889C27.07 9.86773 27.3334 10.5036 27.3334 11.1667V27.8417C27.3334 29.3865 26.7196 30.8682 25.6272 31.9606C24.5348 33.053 23.0532 33.6667 21.5084 33.6667H7.33335C5.56524 33.6667 3.86955 32.9643 2.61931 31.714C1.36907 30.4638 0.666687 28.7681 0.666687 27V11.1667C0.666687 10.5036 0.930079 9.86773 1.39892 9.39889C1.86776 8.93005 2.50365 8.66666 3.16669 8.66666H5.66669ZM16.725 31.1667C16.0472 30.1903 15.6837 29.0302 15.6834 27.8417V11.1667H3.16669V27C3.16669 27.5472 3.27446 28.089 3.48386 28.5945C3.69325 29.1 4.00016 29.5594 4.38708 29.9463C4.77399 30.3332 5.23332 30.6401 5.73884 30.8495C6.24436 31.0589 6.78618 31.1667 7.33335 31.1667H16.725ZM13.1667 8.66666V5.33332C13.1667 4.67028 12.9033 4.0344 12.4345 3.56556C11.9656 3.09672 11.3297 2.83332 10.6667 2.83332C10.0036 2.83332 9.36776 3.09672 8.89892 3.56556C8.43008 4.0344 8.16669 4.67028 8.16669 5.33332V8.66666H13.1667ZM15.6667 8.66666H19.8334V5.33332C19.8334 4.81872 19.6746 4.31663 19.3787 3.8956C19.0828 3.47457 18.6642 3.15511 18.18 2.98082C17.6958 2.80654 17.1696 2.78593 16.6733 2.9218C16.1769 3.05767 15.7346 3.3434 15.4067 3.73999C15.575 4.23999 15.6667 4.77666 15.6667 5.33332V8.66666ZM18.1834 27.8417C18.1834 28.7235 18.5337 29.5692 19.1572 30.1928C19.7808 30.8163 20.6265 31.1667 21.5084 31.1667C22.3902 31.1667 23.2359 30.8163 23.8595 30.1928C24.483 29.5692 24.8334 28.7235 24.8334 27.8417V11.1667H18.1834V27.8417Z" fill="black"/>
</svg>
